<?xml version="1.0" encoding="utf-8"?>
<!-- Generator: Adobe Illustrator 16.0.0, SVG Export Plug-In . SVG Version: 6.00 Build 0)  -->
<!DOCTYPE svg PUBLIC "-//W3C//DTD SVG 1.1//EN" "http://www.w3.org/Graphics/SVG/1.1/DTD/svg11.dtd">
<svg version="1.1" xmlns="http://www.w3.org/2000/svg" xmlns:xlink="http://www.w3.org/1999/xlink" viewBox="165 281.25 355.5 355.5" xml:space="preserve">
	<path fill="#FFDA02" d="M201.75,312.152v-0.305c0-1.002,0.049-2.002,0.147-2.999c0.098-0.998,0.245-1.987,0.44-2.97
		s0.439-1.954,0.729-2.913c0.291-0.959,0.628-1.901,1.012-2.828c0.383-0.926,0.812-1.831,1.284-2.714
		c0.473-0.884,0.987-1.742,1.544-2.575c0.557-0.833,1.153-1.637,1.789-2.412c0.636-0.774,1.308-1.516,2.017-2.225
		s1.45-1.381,2.225-2.017c0.775-0.636,1.579-1.232,2.412-1.789c0.833-0.557,1.691-1.071,2.575-1.544
		c0.884-0.472,1.789-0.9,2.715-1.284c0.926-0.383,1.868-0.721,2.827-1.012s1.93-0.534,2.913-0.729s1.973-0.342,2.97-0.44
		c0.997-0.098,1.997-0.147,2.999-0.147h0.305c1.002,0,2.002,0.049,2.999,0.147c0.998,0.098,1.987,0.245,2.97,0.44
		s1.954,0.438,2.913,0.729s1.901,0.628,2.827,1.012s1.831,0.812,2.715,1.284c0.884,0.473,1.742,0.987,2.575,1.544
		c0.833,0.557,1.637,1.153,2.412,1.789c0.774,0.636,1.516,1.308,2.225,2.017s1.381,1.45,2.017,2.225
		c0.636,0.775,1.232,1.579,1.789,2.412c0.557,0.833,1.071,1.691,1.544,2.575c0.472,0.884,0.9,1.789,1.284,2.714
		c0.383,0.926,0.721,1.869,1.012,2.828s0.534,1.93,0.729,2.913s0.342,1.973,0.44,2.97c0.098,0.997,0.147,1.997,0.147,2.999v0.305
		c0,1.002-0.049,2.002-0.147,2.999c-0.098,0.998-0.245,1.987-0.44,2.97s-0.438,1.954-0.729,2.913s-0.628,1.901-1.012,2.827
		c-0.383,0.926-0.812,1.831-1.284,2.715c-0.473,0.884-0.987,1.742-1.544,2.575c-0.557,0.833-1.153,1.637-1.789,2.412
		c-0.636,0.774-1.308,1.516-2.017,2.225s-1.45,1.381-2.225,2.017c-0.775,0.636-1.579,1.232-2.412,1.789
		c-0.833,0.557-1.691,1.071-2.575,1.544c-0.884,0.472-1.789,0.9-2.715,1.284s-1.868,0.721-2.827,1.012s-1.93,0.534-2.913,0.729
		s-1.973,0.342-2.97,0.44c-0.997,0.098-1.997,0.147-2.999,0.147h-0.305c-1.002,0-2.002-0.049-2.999-0.147
		c-0.998-0.098-1.987-0.245-2.97-0.44s-1.954-0.438-2.913-0.729s-1.901-0.628-2.827-1.012c-0.926-0.383-1.831-0.812-2.715-1.284
		c-0.884-0.473-1.742-0.987-2.575-1.544c-0.833-0.557-1.637-1.153-2.412-1.789c-0.774-0.636-1.516-1.308-2.225-2.017
		s-1.381-1.45-2.017-2.225c-0.636-0.775-1.232-1.579-1.789-2.412c-0.557-0.833-1.071-1.691-1.544-2.575
		c-0.472-0.884-0.9-1.789-1.284-2.715c-0.383-0.926-0.721-1.868-1.012-2.827c-0.291-0.959-0.534-1.93-0.729-2.913
		s-0.342-1.973-0.44-2.97C201.799,314.154,201.75,313.154,201.75,312.152z"/>
	<path fill="#FFDA02" d="M348.75,312.152v-0.305c0-1.002,0.049-2.002,0.147-2.999c0.098-0.998,0.245-1.987,0.44-2.97
		s0.438-1.954,0.729-2.913s0.628-1.901,1.012-2.828c0.384-0.926,0.812-1.831,1.284-2.714c0.472-0.884,0.986-1.742,1.543-2.575
		c0.557-0.833,1.153-1.637,1.789-2.412c0.636-0.774,1.308-1.516,2.017-2.225s1.45-1.381,2.225-2.017s1.579-1.232,2.412-1.789
		c0.833-0.557,1.691-1.071,2.575-1.544c0.884-0.472,1.789-0.9,2.715-1.284s1.868-0.721,2.827-1.012s1.93-0.534,2.912-0.729
		c0.983-0.195,1.974-0.342,2.971-0.44s1.997-0.147,2.999-0.147h0.305c1.002,0,2.002,0.049,2.999,0.147s1.987,0.245,2.971,0.44
		c0.982,0.195,1.953,0.438,2.912,0.729s1.901,0.628,2.827,1.012s1.831,0.812,2.715,1.284c0.884,0.473,1.742,0.987,2.575,1.544
		c0.833,0.557,1.638,1.153,2.412,1.789s1.516,1.308,2.225,2.017s1.381,1.45,2.017,2.225c0.636,0.775,1.232,1.579,1.789,2.412
		c0.557,0.833,1.071,1.691,1.543,2.575c0.473,0.884,0.9,1.789,1.284,2.714c0.384,0.926,0.721,1.869,1.012,2.828
		s0.534,1.93,0.729,2.913s0.342,1.973,0.44,2.97c0.099,0.997,0.147,1.997,0.147,2.999v0.305c0,1.002-0.049,2.002-0.147,2.999
		c-0.099,0.998-0.245,1.987-0.44,2.97s-0.438,1.954-0.729,2.913s-0.628,1.901-1.012,2.827c-0.384,0.926-0.812,1.831-1.284,2.715
		c-0.472,0.884-0.986,1.742-1.543,2.575c-0.557,0.833-1.153,1.637-1.789,2.412c-0.636,0.774-1.308,1.516-2.017,2.225
		s-1.45,1.381-2.225,2.017s-1.579,1.232-2.412,1.789s-1.691,1.071-2.575,1.544c-0.884,0.472-1.789,0.9-2.715,1.284
		s-1.868,0.721-2.827,1.012s-1.93,0.534-2.912,0.729c-0.983,0.195-1.974,0.342-2.971,0.44s-1.997,0.147-2.999,0.147h-0.305
		c-1.002,0-2.002-0.049-2.999-0.147s-1.987-0.245-2.971-0.44c-0.982-0.195-1.953-0.438-2.912-0.729s-1.901-0.628-2.827-1.012
		s-1.831-0.812-2.715-1.284c-0.884-0.473-1.742-0.987-2.575-1.544s-1.638-1.153-2.412-1.789s-1.516-1.308-2.225-2.017
		s-1.381-1.45-2.017-2.225c-0.636-0.775-1.232-1.579-1.789-2.412c-0.557-0.833-1.071-1.691-1.543-2.575
		c-0.473-0.884-0.9-1.789-1.284-2.715c-0.384-0.926-0.721-1.868-1.012-2.827s-0.534-1.93-0.729-2.913s-0.343-1.973-0.44-2.97
		C348.799,314.154,348.75,313.154,348.75,312.152z"/>
	<path fill="#FFDA02" d="M201.75,385.652v-0.305c0-1.002,0.049-2.002,0.147-2.999c0.098-0.998,0.245-1.987,0.44-2.97
		s0.439-1.954,0.729-2.913c0.291-0.959,0.628-1.901,1.012-2.828c0.383-0.926,0.812-1.831,1.284-2.714
		c0.473-0.884,0.987-1.742,1.544-2.575c0.557-0.833,1.153-1.637,1.789-2.412c0.636-0.774,1.308-1.516,2.017-2.225
		s1.45-1.381,2.225-2.017c0.775-0.636,1.579-1.232,2.412-1.789c0.833-0.557,1.691-1.071,2.575-1.544
		c0.884-0.472,1.789-0.9,2.715-1.284c0.926-0.383,1.868-0.721,2.827-1.012s1.93-0.534,2.913-0.729s1.973-0.342,2.97-0.44
		c0.997-0.098,1.997-0.147,2.999-0.147h0.305c1.002,0,2.002,0.049,2.999,0.147c0.998,0.098,1.987,0.245,2.97,0.44
		s1.954,0.438,2.913,0.729s1.901,0.628,2.827,1.012c0.926,0.383,1.831,0.812,2.715,1.284c0.884,0.473,1.742,0.987,2.575,1.544
		c0.833,0.557,1.637,1.153,2.412,1.789c0.774,0.636,1.516,1.308,2.225,2.017s1.381,1.45,2.017,2.225
		c0.636,0.775,1.232,1.579,1.789,2.412c0.557,0.833,1.071,1.691,1.544,2.575c0.472,0.884,0.9,1.789,1.284,2.714
		c0.383,0.926,0.721,1.869,1.012,2.828s0.534,1.93,0.729,2.913s0.342,1.973,0.44,2.97c0.098,0.997,0.147,1.997,0.147,2.999v0.305
		c0,1.002-0.049,2.002-0.147,2.999c-0.098,0.998-0.245,1.987-0.44,2.97s-0.438,1.954-0.729,2.913s-0.628,1.901-1.012,2.827
		s-0.812,1.831-1.284,2.715c-0.473,0.884-0.987,1.742-1.544,2.575s-1.153,1.638-1.789,2.412s-1.308,1.516-2.017,2.225
		s-1.45,1.381-2.225,2.017c-0.775,0.636-1.579,1.231-2.412,1.789c-0.833,0.557-1.691,1.071-2.575,1.543
		c-0.884,0.473-1.789,0.9-2.715,1.284s-1.868,0.721-2.827,1.012s-1.93,0.534-2.913,0.729s-1.973,0.343-2.97,0.44
		c-0.997,0.099-1.997,0.147-2.999,0.147h-0.305c-1.002,0-2.002-0.049-2.999-0.147c-0.998-0.098-1.987-0.245-2.97-0.44
		s-1.954-0.438-2.913-0.729s-1.901-0.628-2.827-1.012c-0.926-0.384-1.831-0.812-2.715-1.284c-0.884-0.472-1.742-0.986-2.575-1.543
		c-0.833-0.558-1.637-1.153-2.412-1.789c-0.774-0.636-1.516-1.308-2.225-2.017s-1.381-1.45-2.017-2.225s-1.232-1.579-1.789-2.412
		s-1.071-1.691-1.544-2.575c-0.472-0.884-0.9-1.789-1.284-2.715s-0.721-1.868-1.012-2.827c-0.291-0.959-0.534-1.93-0.729-2.913
		s-0.342-1.973-0.44-2.97C201.799,387.654,201.75,386.654,201.75,385.652z"/>
	<path fill="#FFDA02" d="M348.75,385.652v-0.305c0-1.002,0.049-2.002,0.147-2.999c0.098-0.998,0.245-1.987,0.44-2.97
		s0.438-1.954,0.729-2.913s0.628-1.901,1.012-2.828c0.384-0.926,0.812-1.831,1.284-2.714c0.472-0.884,0.986-1.742,1.543-2.575
		c0.557-0.833,1.153-1.637,1.789-2.412c0.636-0.774,1.308-1.516,2.017-2.225s1.45-1.381,2.225-2.017s1.579-1.232,2.412-1.789
		c0.833-0.557,1.691-1.071,2.575-1.544c0.884-0.472,1.789-0.9,2.715-1.284s1.868-0.721,2.827-1.012s1.93-0.534,2.912-0.729
		c0.983-0.195,1.974-0.342,2.971-0.44s1.997-0.147,2.999-0.147h0.305c1.002,0,2.002,0.049,2.999,0.147s1.987,0.245,2.971,0.44
		c0.982,0.195,1.953,0.438,2.912,0.729s1.901,0.628,2.827,1.012c0.926,0.383,1.831,0.812,2.715,1.284
		c0.884,0.473,1.742,0.987,2.575,1.544c0.833,0.557,1.638,1.153,2.412,1.789s1.516,1.308,2.225,2.017s1.381,1.45,2.017,2.225
		c0.636,0.775,1.232,1.579,1.789,2.412c0.557,0.833,1.071,1.691,1.543,2.575c0.473,0.884,0.9,1.789,1.284,2.714
		c0.384,0.926,0.721,1.869,1.012,2.828s0.534,1.93,0.729,2.913s0.342,1.973,0.44,2.97c0.099,0.997,0.147,1.997,0.147,2.999v0.305
		c0,1.002-0.049,2.002-0.147,2.999c-0.099,0.998-0.245,1.987-0.44,2.97s-0.438,1.954-0.729,2.913s-0.628,1.901-1.012,2.827
		s-0.812,1.831-1.284,2.715c-0.472,0.884-0.986,1.742-1.543,2.575s-1.153,1.638-1.789,2.412s-1.308,1.516-2.017,2.225
		s-1.45,1.381-2.225,2.017s-1.579,1.231-2.412,1.789c-0.833,0.557-1.691,1.071-2.575,1.543c-0.884,0.473-1.789,0.9-2.715,1.284
		s-1.868,0.721-2.827,1.012s-1.93,0.534-2.912,0.729c-0.983,0.195-1.974,0.343-2.971,0.44c-0.997,0.099-1.997,0.147-2.999,0.147
		h-0.305c-1.002,0-2.002-0.049-2.999-0.147c-0.997-0.098-1.987-0.245-2.971-0.44c-0.982-0.195-1.953-0.438-2.912-0.729
		s-1.901-0.628-2.827-1.012s-1.831-0.812-2.715-1.284c-0.884-0.472-1.742-0.986-2.575-1.543c-0.833-0.558-1.638-1.153-2.412-1.789
		s-1.516-1.308-2.225-2.017s-1.381-1.45-2.017-2.225s-1.232-1.579-1.789-2.412s-1.071-1.691-1.543-2.575
		c-0.473-0.884-0.9-1.789-1.284-2.715s-0.721-1.868-1.012-2.827s-0.534-1.93-0.729-2.913s-0.343-1.973-0.44-2.97
		C348.799,387.654,348.75,386.654,348.75,385.652z"/>
	<path fill="#FFDA02" d="M201.75,459.152v-0.305c0-1.002,0.049-2.002,0.147-2.999s0.245-1.987,0.44-2.971
		c0.195-0.982,0.439-1.953,0.729-2.912c0.291-0.959,0.628-1.901,1.012-2.827s0.812-1.831,1.284-2.715
		c0.473-0.884,0.987-1.742,1.544-2.575s1.153-1.638,1.789-2.412s1.308-1.516,2.017-2.225s1.45-1.381,2.225-2.017
		c0.775-0.636,1.579-1.232,2.412-1.789c0.833-0.557,1.691-1.071,2.575-1.543c0.884-0.473,1.789-0.9,2.715-1.284
		c0.926-0.384,1.868-0.721,2.827-1.012s1.93-0.534,2.913-0.729s1.973-0.342,2.97-0.44c0.997-0.099,1.997-0.147,2.999-0.147h0.305
		c1.002,0,2.002,0.049,2.999,0.147c0.998,0.099,1.987,0.245,2.97,0.44s1.954,0.438,2.913,0.729s1.901,0.628,2.827,1.012
		s1.831,0.812,2.715,1.284c0.884,0.472,1.742,0.986,2.575,1.543c0.833,0.557,1.637,1.153,2.412,1.789
		c0.774,0.636,1.516,1.308,2.225,2.017s1.381,1.45,2.017,2.225s1.232,1.579,1.789,2.412s1.071,1.691,1.544,2.575
		c0.472,0.884,0.9,1.789,1.284,2.715s0.721,1.868,1.012,2.827s0.534,1.93,0.729,2.912c0.195,0.983,0.342,1.974,0.44,2.971
		s0.147,1.997,0.147,2.999v0.305c0,1.002-0.049,2.002-0.147,2.999s-0.245,1.987-0.44,2.971c-0.195,0.982-0.438,1.953-0.729,2.912
		s-0.628,1.901-1.012,2.827s-0.812,1.831-1.284,2.715c-0.473,0.884-0.987,1.742-1.544,2.575s-1.153,1.638-1.789,2.412
		s-1.308,1.516-2.017,2.225s-1.45,1.381-2.225,2.017c-0.775,0.636-1.579,1.231-2.412,1.789c-0.833,0.557-1.691,1.071-2.575,1.543
		c-0.884,0.473-1.789,0.9-2.715,1.284s-1.868,0.721-2.827,1.012s-1.93,0.534-2.913,0.729s-1.973,0.342-2.97,0.44
		c-0.997,0.099-1.997,0.147-2.999,0.147h-0.305c-1.002,0-2.002-0.049-2.999-0.147c-0.998-0.099-1.987-0.245-2.97-0.44
		s-1.954-0.438-2.913-0.729s-1.901-0.628-2.827-1.012c-0.926-0.384-1.831-0.812-2.715-1.284c-0.884-0.472-1.742-0.986-2.575-1.543
		c-0.833-0.558-1.637-1.153-2.412-1.789c-0.774-0.636-1.516-1.308-2.225-2.017s-1.381-1.45-2.017-2.225s-1.232-1.579-1.789-2.412
		s-1.071-1.691-1.544-2.575c-0.472-0.884-0.9-1.789-1.284-2.715s-0.721-1.868-1.012-2.827c-0.291-0.959-0.534-1.93-0.729-2.912
		c-0.195-0.983-0.342-1.974-0.44-2.971S201.75,460.154,201.75,459.152z"/>
	<path fill="#FFDA02" d="M275.25,459.152v-0.305c0-1.002,0.049-2.002,0.147-2.999s0.245-1.987,0.44-2.971
		c0.195-0.982,0.438-1.953,0.729-2.912s0.628-1.901,1.012-2.827s0.812-1.831,1.284-2.715c0.473-0.884,0.987-1.742,1.544-2.575
		c0.557-0.833,1.153-1.638,1.789-2.412s1.308-1.516,2.017-2.225s1.45-1.381,2.225-2.017c0.775-0.636,1.579-1.232,2.412-1.789
		c0.833-0.557,1.691-1.071,2.575-1.543c0.884-0.473,1.789-0.9,2.714-1.284c0.926-0.384,1.869-0.721,2.828-1.012
		s1.93-0.534,2.913-0.729s1.973-0.342,2.97-0.44c0.997-0.099,1.997-0.147,2.999-0.147h0.305c1.002,0,2.002,0.049,2.999,0.147
		s1.987,0.245,2.971,0.44c0.982,0.195,1.953,0.438,2.912,0.729s1.901,0.628,2.827,1.012s1.831,0.812,2.715,1.284
		c0.884,0.472,1.742,0.986,2.575,1.543s1.638,1.153,2.412,1.789s1.517,1.308,2.225,2.017c0.709,0.709,1.381,1.45,2.017,2.225
		s1.232,1.579,1.789,2.412s1.071,1.691,1.543,2.575c0.473,0.884,0.9,1.789,1.284,2.715s0.721,1.868,1.012,2.827
		s0.534,1.93,0.729,2.912c0.195,0.983,0.343,1.974,0.44,2.971c0.099,0.997,0.147,1.997,0.147,2.999v0.305
		c0,1.002-0.049,2.002-0.147,2.999c-0.098,0.997-0.245,1.987-0.44,2.971c-0.195,0.982-0.438,1.953-0.729,2.912
		s-0.628,1.901-1.012,2.827s-0.812,1.831-1.284,2.715c-0.472,0.884-0.986,1.742-1.543,2.575s-1.153,1.638-1.789,2.412
		s-1.308,1.516-2.017,2.225c-0.708,0.709-1.45,1.381-2.225,2.017s-1.579,1.231-2.412,1.789c-0.833,0.557-1.691,1.071-2.575,1.543
		c-0.884,0.473-1.789,0.9-2.715,1.284s-1.868,0.721-2.827,1.012s-1.93,0.534-2.912,0.729c-0.983,0.195-1.974,0.342-2.971,0.44
		s-1.997,0.147-2.999,0.147h-0.305c-1.002,0-2.002-0.049-2.999-0.147c-0.998-0.099-1.987-0.245-2.97-0.44
		s-1.954-0.438-2.913-0.729s-1.901-0.628-2.828-1.012c-0.926-0.384-1.831-0.812-2.714-1.284c-0.884-0.472-1.742-0.986-2.575-1.543
		c-0.833-0.558-1.637-1.153-2.412-1.789c-0.774-0.636-1.516-1.308-2.225-2.017s-1.381-1.45-2.017-2.225s-1.232-1.579-1.789-2.412
		c-0.557-0.833-1.071-1.691-1.544-2.575c-0.472-0.884-0.9-1.789-1.284-2.715s-0.721-1.868-1.012-2.827s-0.534-1.93-0.729-2.912
		c-0.195-0.983-0.342-1.974-0.44-2.971S275.25,460.154,275.25,459.152z"/>
	<path fill="#D02B27" d="M348.75,459.152v-0.305c0-1.002,0.049-2.002,0.147-2.999c0.098-0.997,0.245-1.987,0.44-2.971
		c0.195-0.982,0.438-1.953,0.729-2.912s0.628-1.901,1.012-2.827s0.812-1.831,1.284-2.715c0.472-0.884,0.986-1.742,1.543-2.575
		s1.153-1.638,1.789-2.412s1.308-1.516,2.017-2.225s1.45-1.381,2.225-2.017s1.579-1.232,2.412-1.789s1.691-1.071,2.575-1.543
		c0.884-0.473,1.789-0.9,2.715-1.284s1.868-0.721,2.827-1.012s1.93-0.534,2.912-0.729c0.983-0.195,1.974-0.342,2.971-0.44
		s1.997-0.147,2.999-0.147h0.305c1.002,0,2.002,0.049,2.999,0.147s1.987,0.245,2.971,0.44c0.982,0.195,1.953,0.438,2.912,0.729
		s1.901,0.628,2.827,1.012s1.831,0.812,2.715,1.284c0.884,0.472,1.742,0.986,2.575,1.543s1.638,1.153,2.412,1.789
		s1.516,1.308,2.225,2.017s1.381,1.45,2.017,2.225s1.232,1.579,1.789,2.412s1.071,1.691,1.543,2.575
		c0.473,0.884,0.9,1.789,1.284,2.715s0.721,1.868,1.012,2.827s0.534,1.93,0.729,2.912c0.195,0.983,0.342,1.974,0.44,2.971
		s0.147,1.997,0.147,2.999v0.305c0,1.002-0.049,2.002-0.147,2.999s-0.245,1.987-0.44,2.971c-0.195,0.982-0.438,1.953-0.729,2.912
		s-0.628,1.901-1.012,2.827s-0.812,1.831-1.284,2.715c-0.472,0.884-0.986,1.742-1.543,2.575s-1.153,1.638-1.789,2.412
		s-1.308,1.516-2.017,2.225s-1.45,1.381-2.225,2.017s-1.579,1.231-2.412,1.789c-0.833,0.557-1.691,1.071-2.575,1.543
		c-0.884,0.473-1.789,0.9-2.715,1.284s-1.868,0.721-2.827,1.012s-1.93,0.534-2.912,0.729c-0.983,0.195-1.974,0.342-2.971,0.44
		s-1.997,0.147-2.999,0.147h-0.305c-1.002,0-2.002-0.049-2.999-0.147s-1.987-0.245-2.971-0.44
		c-0.982-0.195-1.953-0.438-2.912-0.729s-1.901-0.628-2.827-1.012s-1.831-0.812-2.715-1.284c-0.884-0.472-1.742-0.986-2.575-1.543
		c-0.833-0.558-1.638-1.153-2.412-1.789s-1.516-1.308-2.225-2.017s-1.381-1.45-2.017-2.225s-1.232-1.579-1.789-2.412
		s-1.071-1.691-1.543-2.575c-0.473-0.884-0.9-1.789-1.284-2.715s-0.721-1.868-1.012-2.827s-0.534-1.93-0.729-2.912
		c-0.195-0.983-0.343-1.974-0.44-2.971C348.799,461.154,348.75,460.154,348.75,459.152z"/>
	<path fill="#FFDA02" d="M422.25,459.152v-0.305c0-1.002,0.049-2.002,0.147-2.999c0.098-0.997,0.245-1.987,0.44-2.971
		c0.195-0.982,0.438-1.953,0.729-2.912s0.628-1.901,1.012-2.827s0.812-1.831,1.284-2.715c0.472-0.884,0.986-1.742,1.543-2.575
		s1.153-1.638,1.789-2.412s1.308-1.516,2.017-2.225c0.708-0.709,1.45-1.381,2.225-2.017s1.579-1.232,2.412-1.789
		s1.691-1.071,2.575-1.543c0.884-0.473,1.789-0.9,2.715-1.284s1.868-0.721,2.827-1.012s1.93-0.534,2.912-0.729
		c0.983-0.195,1.974-0.342,2.971-0.44s1.997-0.147,2.999-0.147h0.305c1.002,0,2.002,0.049,2.999,0.147s1.987,0.245,2.971,0.44
		c0.982,0.195,1.953,0.438,2.912,0.729s1.901,0.628,2.827,1.012s1.831,0.812,2.715,1.284c0.884,0.472,1.742,0.986,2.575,1.543
		s1.638,1.153,2.412,1.789s1.516,1.308,2.225,2.017s1.381,1.45,2.017,2.225s1.232,1.579,1.789,2.412s1.071,1.691,1.543,2.575
		c0.473,0.884,0.9,1.789,1.284,2.715s0.721,1.868,1.012,2.827s0.534,1.93,0.729,2.912c0.195,0.983,0.342,1.974,0.44,2.971
		s0.147,1.997,0.147,2.999v0.305c0,1.002-0.049,2.002-0.147,2.999s-0.245,1.987-0.44,2.971c-0.195,0.982-0.438,1.953-0.729,2.912
		s-0.628,1.901-1.012,2.827s-0.812,1.831-1.284,2.715c-0.472,0.884-0.986,1.742-1.543,2.575s-1.153,1.638-1.789,2.412
		s-1.308,1.516-2.017,2.225s-1.45,1.381-2.225,2.017s-1.579,1.231-2.412,1.789c-0.833,0.557-1.691,1.071-2.575,1.543
		c-0.884,0.473-1.789,0.9-2.715,1.284s-1.868,0.721-2.827,1.012s-1.93,0.534-2.912,0.729c-0.983,0.195-1.974,0.342-2.971,0.44
		s-1.997,0.147-2.999,0.147h-0.305c-1.002,0-2.002-0.049-2.999-0.147s-1.987-0.245-2.971-0.44
		c-0.982-0.195-1.953-0.438-2.912-0.729s-1.901-0.628-2.827-1.012s-1.831-0.812-2.715-1.284c-0.884-0.472-1.742-0.986-2.575-1.543
		c-0.833-0.558-1.638-1.153-2.412-1.789s-1.517-1.308-2.225-2.017c-0.709-0.709-1.381-1.45-2.017-2.225s-1.232-1.579-1.789-2.412
		s-1.071-1.691-1.543-2.575c-0.473-0.884-0.9-1.789-1.284-2.715s-0.721-1.868-1.012-2.827s-0.534-1.93-0.729-2.912
		c-0.195-0.983-0.343-1.974-0.44-2.971C422.299,461.154,422.25,460.154,422.25,459.152z"/>
	<path fill="#FFDA02" d="M348.75,532.652v-0.305c0-1.002,0.049-2.002,0.147-2.999c0.098-0.997,0.245-1.987,0.44-2.971
		c0.195-0.982,0.438-1.953,0.729-2.912s0.628-1.901,1.012-2.827s0.812-1.831,1.284-2.715c0.472-0.884,0.986-1.742,1.543-2.575
		s1.153-1.638,1.789-2.412s1.308-1.516,2.017-2.225s1.45-1.381,2.225-2.017s1.579-1.232,2.412-1.789s1.691-1.071,2.575-1.543
		c0.884-0.473,1.789-0.9,2.715-1.284s1.868-0.721,2.827-1.012s1.93-0.534,2.912-0.729c0.983-0.195,1.974-0.342,2.971-0.44
		s1.997-0.147,2.999-0.147h0.305c1.002,0,2.002,0.049,2.999,0.147s1.987,0.245,2.971,0.44c0.982,0.195,1.953,0.438,2.912,0.729
		s1.901,0.628,2.827,1.012s1.831,0.812,2.715,1.284c0.884,0.472,1.742,0.986,2.575,1.543s1.638,1.153,2.412,1.789
		s1.516,1.308,2.225,2.017s1.381,1.45,2.017,2.225s1.232,1.579,1.789,2.412s1.071,1.691,1.543,2.575
		c0.473,0.884,0.9,1.789,1.284,2.715s0.721,1.868,1.012,2.827s0.534,1.93,0.729,2.912c0.195,0.983,0.342,1.974,0.44,2.971
		s0.147,1.997,0.147,2.999v0.305c0,1.002-0.049,2.002-0.147,2.999s-0.245,1.987-0.44,2.971c-0.195,0.982-0.438,1.953-0.729,2.912
		s-0.628,1.901-1.012,2.827s-0.812,1.831-1.284,2.715c-0.472,0.884-0.986,1.742-1.543,2.575s-1.153,1.638-1.789,2.412
		s-1.308,1.516-2.017,2.225s-1.45,1.381-2.225,2.017s-1.579,1.232-2.412,1.789s-1.691,1.071-2.575,1.543
		c-0.884,0.473-1.789,0.9-2.715,1.284s-1.868,0.721-2.827,1.012s-1.93,0.534-2.912,0.729c-0.983,0.195-1.974,0.342-2.971,0.44
		s-1.997,0.147-2.999,0.147h-0.305c-1.002,0-2.002-0.049-2.999-0.147s-1.987-0.245-2.971-0.44
		c-0.982-0.195-1.953-0.438-2.912-0.729s-1.901-0.628-2.827-1.012s-1.831-0.812-2.715-1.284c-0.884-0.472-1.742-0.986-2.575-1.543
		s-1.638-1.153-2.412-1.789s-1.516-1.308-2.225-2.017s-1.381-1.45-2.017-2.225s-1.232-1.579-1.789-2.412s-1.071-1.691-1.543-2.575
		c-0.473-0.884-0.9-1.789-1.284-2.715s-0.721-1.868-1.012-2.827s-0.534-1.93-0.729-2.912c-0.195-0.983-0.343-1.974-0.44-2.971
		C348.799,534.654,348.75,533.654,348.75,532.652z"/>
	<path fill="#FFDA02" d="M348.75,606.152v-0.305c0-1.002,0.049-2.002,0.147-2.999c0.098-0.997,0.245-1.987,0.44-2.971
		c0.195-0.982,0.438-1.953,0.729-2.912s0.628-1.901,1.012-2.827s0.812-1.831,1.284-2.715c0.472-0.884,0.986-1.742,1.543-2.575
		s1.153-1.638,1.789-2.412s1.308-1.517,2.017-2.225c0.709-0.709,1.45-1.381,2.225-2.017s1.579-1.232,2.412-1.789
		s1.691-1.071,2.575-1.543c0.884-0.473,1.789-0.9,2.715-1.284s1.868-0.721,2.827-1.012s1.93-0.534,2.912-0.729
		c0.983-0.195,1.974-0.342,2.971-0.44s1.997-0.147,2.999-0.147h0.305c1.002,0,2.002,0.049,2.999,0.147s1.987,0.245,2.971,0.44
		c0.982,0.195,1.953,0.438,2.912,0.729s1.901,0.628,2.827,1.012s1.831,0.812,2.715,1.284c0.884,0.472,1.742,0.986,2.575,1.543
		s1.638,1.153,2.412,1.789s1.516,1.308,2.225,2.017c0.709,0.708,1.381,1.45,2.017,2.225s1.232,1.579,1.789,2.412
		s1.071,1.691,1.543,2.575c0.473,0.884,0.9,1.789,1.284,2.715s0.721,1.868,1.012,2.827s0.534,1.93,0.729,2.912
		c0.195,0.983,0.342,1.974,0.44,2.971s0.147,1.997,0.147,2.999v0.305c0,1.002-0.049,2.002-0.147,2.999s-0.245,1.987-0.44,2.971
		c-0.195,0.982-0.438,1.953-0.729,2.912s-0.628,1.901-1.012,2.827s-0.812,1.831-1.284,2.715c-0.472,0.884-0.986,1.742-1.543,2.575
		s-1.153,1.638-1.789,2.412s-1.308,1.516-2.017,2.225s-1.45,1.381-2.225,2.017s-1.579,1.232-2.412,1.789s-1.691,1.071-2.575,1.543
		c-0.884,0.473-1.789,0.9-2.715,1.284s-1.868,0.721-2.827,1.012s-1.93,0.534-2.912,0.729c-0.983,0.195-1.974,0.343-2.971,0.44
		c-0.997,0.099-1.997,0.147-2.999,0.147h-0.305c-1.002,0-2.002-0.049-2.999-0.147c-0.997-0.098-1.987-0.245-2.971-0.44
		c-0.982-0.195-1.953-0.438-2.912-0.729s-1.901-0.628-2.827-1.012s-1.831-0.812-2.715-1.284c-0.884-0.472-1.742-0.986-2.575-1.543
		s-1.638-1.153-2.412-1.789s-1.516-1.308-2.225-2.017s-1.381-1.45-2.017-2.225s-1.232-1.579-1.789-2.412s-1.071-1.691-1.543-2.575
		c-0.473-0.884-0.9-1.789-1.284-2.715s-0.721-1.868-1.012-2.827s-0.534-1.93-0.729-2.913c-0.195-0.982-0.343-1.973-0.44-2.97
		C348.799,608.154,348.75,607.154,348.75,606.152z"/>
</svg>
