<?xml version="1.0" standalone="no"?>
<!DOCTYPE svg PUBLIC "-//W3C//DTD SVG 20010904//EN"
 "http://www.w3.org/TR/2001/REC-SVG-20010904/DTD/svg10.dtd">
<svg version="1.0" xmlns="http://www.w3.org/2000/svg"
 width="700.000000pt" height="700.000000pt" viewBox="0 0 700.000000 700.000000"
 preserveAspectRatio="xMidYMid meet">
<metadata>
Created by potrace 1.14, written by Peter Selinger 2001-2017
</metadata>
<g transform="translate(0.000000,700.000000) scale(0.100000,-0.100000)"
fill="#000000" stroke="none">
<path d="M1211 6989 c-194 -38 -362 -176 -439 -361 -37 -88 -46 -138 -45 -243
1 -141 45 -263 133 -372 52 -65 146 -138 215 -168 22 -9 49 -21 60 -26 46 -19
151 -31 233 -27 224 14 419 148 512 353 82 180 66 409 -40 574 -112 172 -282
269 -485 276 -55 1 -120 -1 -144 -6z"/>
<path d="M4072 6980 c-273 -73 -458 -317 -451 -595 3 -108 22 -183 70 -275 70
-134 204 -246 354 -293 100 -32 273 -31 366 1 97 33 175 84 250 161 306 318
173 849 -249 990 -94 32 -246 37 -340 11z"/>
<path d="M1229 5545 c-3 -2 -23 -7 -45 -10 -58 -9 -192 -78 -252 -131 -262
-229 -277 -633 -31 -882 232 -236 621 -237 856 -2 177 176 226 446 123 676
-76 170 -237 302 -412 340 -60 13 -229 19 -239 9z"/>
<path d="M4076 5535 c-145 -37 -276 -131 -362 -260 -86 -128 -117 -327 -75
-480 29 -103 73 -185 139 -256 123 -134 279 -199 464 -194 280 7 514 202 572
475 64 298 -106 599 -394 700 -84 29 -256 37 -344 15z"/>
<path d="M1217 4093 c-254 -51 -434 -232 -481 -483 -19 -98 -11 -225 18 -294
8 -20 13 -36 10 -36 -10 0 58 -114 95 -160 68 -85 154 -147 256 -185 84 -32
120 -38 226 -38 183 0 365 94 476 246 181 247 146 597 -81 804 -141 129 -334
183 -519 146z"/>
<path d="M2738 4104 c-2 -1 -23 -5 -48 -7 -196 -23 -374 -154 -461 -340 -59
-128 -72 -267 -38 -405 113 -452 679 -610 1009 -282 72 72 116 141 152 240 20
56 23 83 22 195 0 116 -3 137 -26 196 -38 96 -101 191 -166 250 -63 56 -191
123 -267 139 -47 10 -172 20 -177 14z"/>
<path d="M4168 4105 c-2 -2 -21 -5 -43 -8 -113 -16 -237 -79 -325 -167 -112
-111 -167 -233 -177 -386 -16 -257 108 -476 332 -583 98 -48 164 -63 263 -63
96 0 121 3 204 31 231 77 390 289 404 541 5 105 -9 184 -51 277 -100 220 -296
349 -542 358 -34 1 -64 1 -65 0z"/>
<path d="M5540 4089 c-157 -37 -285 -123 -369 -249 -171 -255 -128 -594 101
-794 150 -132 346 -179 553 -132 37 8 110 40 165 72 166 97 281 299 283 495 1
167 -37 280 -132 399 -143 178 -381 261 -601 209z"/>
<path d="M4082 2640 c-113 -27 -196 -74 -283 -161 -129 -127 -180 -260 -175
-449 3 -103 16 -160 54 -240 148 -305 517 -428 822 -275 146 74 255 206 305
367 22 69 27 229 10 299 -53 219 -194 375 -400 444 -103 35 -229 40 -333 15z"/>
<path d="M4072 1190 c-275 -74 -453 -308 -452 -594 2 -278 203 -524 477 -581
74 -16 232 -14 273 3 14 5 27 10 30 10 16 2 53 17 109 45 129 64 248 210 296
362 18 56 28 241 16 283 -5 15 -14 47 -21 72 -53 187 -241 361 -437 406 -74
17 -219 14 -291 -6z"/>
</g>
</svg>
